<svg xmlns="http://www.w3.org/2000/svg" width="348.077" height="348.077"><path fill="red" d="M340.27 275.08l-53.75-53.76c-10.7-10.66-28.44-10.34-39.52.75l-27.08 27.07c-1.7-.94-3.48-1.93-5.35-2.97-17.1-9.48-40.5-22.46-65.14-47.1-24.7-24.7-37.7-48.16-47.2-65.27-1-1.8-1.97-3.56-2.92-5.22l18.2-18.15 8.92-8.95c11.1-11.1 11.4-28.82.73-39.52L73.4 8.2C62.7-2.5 44.96-2.17 33.86 8.93L18.72 24.18l.42.4c-5.08 6.5-9.33 13.96-12.5 22.03-2.9 7.68-4.7 15-5.54 22.34-7.1 58.84 19.8 112.62 92.77 185.6 100.87 100.87 182.16 93.25 185.67 92.88 7.64-.92 14.96-2.74 22.4-5.63 8-3.13 15.46-7.37 21.94-12.44l.33.3 15.36-15.04c11.07-11.1 11.4-28.82.7-39.54z"/></svg>