<?xml version="1.0" standalone="no"?>
<!DOCTYPE svg PUBLIC "-//W3C//DTD SVG 20010904//EN"
 "http://www.w3.org/TR/2001/REC-SVG-20010904/DTD/svg10.dtd">
<svg version="1.0" xmlns="http://www.w3.org/2000/svg"
 width="962.000000pt" height="962.000000pt" viewBox="0 0 962.000000 962.000000"
 preserveAspectRatio="xMidYMid meet">
<metadata>
Created by potrace 1.15, written by Peter Selinger 2001-2017
</metadata>
<g transform="translate(0.000000,962.000000) scale(0.100000,-0.100000)"
fill="#000000" stroke="none">
<path d="M4485 9609 c-1403 -92 -2696 -800 -3542 -1939 -985 -1326 -1216
-3087 -606 -4629 488 -1234 1470 -2216 2704 -2704 1238 -490 2645 -441 3843
132 893 428 1640 1128 2127 1996 757 1349 810 3020 140 4419 -473 988 -1279
1794 -2267 2267 -737 353 -1571 512 -2399 458z m-200 -1978 c146 -25 280 -59
400 -102 50 -18 106 -32 125 -32 19 0 81 16 137 36 121 43 267 79 418 104 157
26 564 26 720 0 227 -38 458 -109 659 -201 100 -46 297 -162 364 -215 99 -78
89 74 97 -1501 6 -1059 5 -1396 -5 -1430 -10 -41 -101 -135 -1133 -1168 -761
-761 -1135 -1129 -1163 -1142 -25 -12 -61 -20 -94 -20 -33 0 -69 8 -94 20 -28
13 -402 381 -1163 1142 -1032 1033 -1123 1127 -1133 1168 -10 34 -11 371 -5
1430 7 1333 8 1386 26 1422 25 48 93 102 240 189 297 176 607 277 989 323 19
2 139 3 265 1 176 -2 258 -8 350 -24z"/>
<path d="M3690 7219 c-264 -30 -535 -118 -767 -251 l-73 -42 0 -422 0 -423 68
31 c180 82 425 153 641 185 162 24 522 24 681 0 155 -24 343 -71 468 -117
l102 -37 103 37 c124 46 312 93 467 117 159 24 519 24 681 0 216 -32 461 -103
642 -185 l67 -31 0 423 0 422 -72 42 c-419 239 -902 317 -1367 221 -130 -27
-215 -52 -359 -110 -73 -29 -139 -49 -162 -49 -23 0 -89 20 -162 49 -144 58
-229 83 -359 110 -188 39 -418 50 -599 30z"/>
<path d="M3650 5869 c-107 -14 -259 -49 -370 -86 -98 -32 -324 -136 -397 -182
l-33 -21 0 -420 c0 -231 4 -420 9 -420 4 0 39 14 76 31 267 121 561 186 885
196 305 9 556 -26 838 -119 l152 -50 153 50 c281 93 532 128 837 119 324 -10
618 -75 885 -196 37 -17 72 -31 76 -31 5 0 9 189 9 420 l0 420 -32 21 c-76 47
-301 150 -403 184 -199 65 -324 86 -555 92 -162 4 -229 2 -320 -11 -184 -27
-353 -74 -513 -143 -59 -25 -93 -33 -137 -33 -44 0 -78 8 -137 33 -157 68
-329 116 -504 141 -115 17 -404 20 -519 5z"/>
<path d="M3620 4514 c-192 -28 -411 -94 -564 -171 l-69 -35 911 -911 912 -912
912 912 911 911 -63 32 c-246 124 -543 190 -853 190 -285 -1 -485 -41 -762
-153 -66 -27 -115 -41 -145 -41 -30 0 -79 14 -145 41 -283 115 -479 153 -775
152 -96 -1 -218 -7 -270 -15z"/>
</g>
</svg>
